<?xml version="1.0" encoding="UTF-8"?>
<!DOCTYPE svg PUBLIC "-//W3C//DTD SVG 1.1//EN" "http://www.w3.org/Graphics/SVG/1.1/DTD/svg11.dtd">
<svg xmlns="http://www.w3.org/2000/svg" version="1.1" width="180px" height="50px" style="shape-rendering:geometricPrecision; text-rendering:geometricPrecision; image-rendering:optimizeQuality; fill-rule:evenodd; clip-rule:evenodd" xmlns:xlink="http://www.w3.org/1999/xlink">
<g><path style="opacity:0.833" fill="#6f00ff" d="M 28.5,-0.5 C 35.8333,-0.5 43.1667,-0.5 50.5,-0.5C 50.5,2.16667 50.5,4.83333 50.5,7.5C 46.1667,7.5 41.8333,7.5 37.5,7.5C 37.5,11.1667 37.5,14.8333 37.5,18.5C 40.8333,18.5 44.1667,18.5 47.5,18.5C 47.5,20.8333 47.5,23.1667 47.5,25.5C 44.1667,25.5 40.8333,25.5 37.5,25.5C 37.5,28.8333 37.5,32.1667 37.5,35.5C 34.9873,38.2546 31.9873,40.2546 28.5,41.5C 28.5,27.5 28.5,13.5 28.5,-0.5 Z"/></g>
<g><path style="opacity:0.836" fill="#6f00ff" d="M 54.5,-0.5 C 57.5,-0.5 60.5,-0.5 63.5,-0.5C 63.7949,4.56362 64.4616,9.56362 65.5,14.5C 62.8508,16.14 60.1841,17.8067 57.5,19.5C 56.3139,12.8643 55.3139,6.19768 54.5,-0.5 Z"/></g>
<g><path style="opacity:0.798" fill="#6f00ff" d="M 73.5,-0.5 C 76.1667,-0.5 78.8333,-0.5 81.5,-0.5C 81.5,0.166667 81.5,0.833333 81.5,1.5C 78.6434,3.75833 75.6434,5.75833 72.5,7.5C 72.8333,4.83333 73.1667,2.16667 73.5,-0.5 Z"/></g>
<g><path style="opacity:0.889" fill="#7300ff" d="M 86.5,-0.5 C 93.5,-0.5 100.5,-0.5 107.5,-0.5C 107.5,1.83333 107.5,4.16667 107.5,6.5C 103.167,6.5 98.8333,6.5 94.5,6.5C 94.5,9.5 94.5,12.5 94.5,15.5C 91.8333,17.5 89.1667,19.5 86.5,21.5C 86.5,14.1667 86.5,6.83333 86.5,-0.5 Z"/></g>
<g><path style="opacity:0.915" fill="#7900ff" d="M 112.5,-0.5 C 115.167,-0.5 117.833,-0.5 120.5,-0.5C 120.5,4.16667 120.5,8.83333 120.5,13.5C 117.833,15.1667 115.167,16.8333 112.5,18.5C 112.5,12.1667 112.5,5.83333 112.5,-0.5 Z"/></g>
<g><path style="opacity:0.806" fill="#8100ff" d="M 137.5,-0.5 C 140.5,-0.5 143.5,-0.5 146.5,-0.5C 146.5,5.16667 146.5,10.8333 146.5,16.5C 143.5,18.5 140.5,20.5 137.5,22.5C 137.5,14.8333 137.5,7.16667 137.5,-0.5 Z"/></g>
<g><path style="opacity:0.752" fill="#8200ff" d="M 151.5,-0.5 C 153.167,-0.5 154.833,-0.5 156.5,-0.5C 157.919,0.451145 159.585,0.784479 161.5,0.5C 161.433,1.95875 161.766,3.29208 162.5,4.5C 159.883,5.78588 157.55,7.45255 155.5,9.5C 153.991,6.32225 152.658,2.98892 151.5,-0.5 Z"/></g>
<g><path style="opacity:0.909" fill="#6f00ff" d="M -0.5,0.5 C 5.17645,0.333909 10.8431,0.500575 16.5,1C 18.9393,1.77385 20.7727,3.27385 22,5.5C 22.6667,10.1667 22.6667,14.8333 22,19.5C 21.2155,21.286 20.0488,22.786 18.5,24C 19.6667,25.1667 20.8333,26.3333 22,27.5C 22.286,34.2 22.786,40.8667 23.5,47.5C 20.5,47.5 17.5,47.5 14.5,47.5C 14.666,42.1563 14.4994,36.8229 14,31.5C 12.742,28.9447 10.9086,28.2781 8.5,29.5C 7.50367,35.7985 7.17033,42.1318 7.5,48.5C 6.20895,48.2627 5.20895,48.596 4.5,49.5C 2.83333,49.5 1.16667,49.5 -0.5,49.5C -0.5,33.1667 -0.5,16.8333 -0.5,0.5 Z M 9.5,7.5 C 11.5816,7.62435 13.0816,8.62435 14,10.5C 16.2756,17.0682 14.109,20.7349 7.5,21.5C 6.9853,16.5203 7.65197,11.8536 9.5,7.5 Z"/></g>
<g><path style="opacity:0.866" fill="#8400ff" d="M 179.5,0.5 C 179.5,1.16667 179.5,1.83333 179.5,2.5C 176.862,9.401 174.195,16.401 171.5,23.5C 174,31.0083 176.666,38.3416 179.5,45.5C 179.5,46.8333 179.5,48.1667 179.5,49.5C 177.833,49.5 176.167,49.5 174.5,49.5C 173.432,48.5655 172.099,48.2322 170.5,48.5C 169.379,42.3027 167.546,36.3027 165,30.5C 163.788,36.8462 161.455,42.5128 158,47.5C 155.774,47.0216 153.608,46.355 151.5,45.5C 154.861,38.2519 157.527,30.7519 159.5,23C 158.262,18.4549 156.929,13.9549 155.5,9.5C 157.55,7.45255 159.883,5.78588 162.5,4.5C 163.371,8.57801 164.537,12.578 166,16.5C 167.946,11.6043 169.613,6.60434 171,1.5C 173.719,0.556209 176.552,0.222875 179.5,0.5 Z"/></g>
<g><path style="opacity:0.868" fill="#7200ff" d="M 81.5,1.5 C 79.6483,10.794 77.9816,20.1273 76.5,29.5C 71.6776,33.411 66.6776,37.0776 61.5,40.5C 59.9335,33.6621 58.6002,26.6621 57.5,19.5C 60.1841,17.8067 62.8508,16.14 65.5,14.5C 66.4399,20.4746 67.2733,26.4746 68,32.5C 69.5024,24.1508 71.0024,15.8175 72.5,7.5C 75.6434,5.75833 78.6434,3.75833 81.5,1.5 Z"/></g>
<g><path style="opacity:0.939" fill="#8000ff" d="M 120.5,13.5 C 120.5,21.1667 120.5,28.8333 120.5,36.5C 117.833,38.1667 115.167,39.8333 112.5,41.5C 112.5,33.8333 112.5,26.1667 112.5,18.5C 115.167,16.8333 117.833,15.1667 120.5,13.5 Z"/></g>
<g><path style="opacity:0.898" fill="#7900ff" d="M 94.5,15.5 C 94.5,16.5 94.5,17.5 94.5,18.5C 97.8333,18.5 101.167,18.5 104.5,18.5C 104.5,21.1667 104.5,23.8333 104.5,26.5C 101.214,25.7929 97.8806,25.4595 94.5,25.5C 94.5,28.1667 94.5,30.8333 94.5,33.5C 91.8159,35.1933 89.1492,36.86 86.5,38.5C 86.5,32.8333 86.5,27.1667 86.5,21.5C 89.1667,19.5 91.8333,17.5 94.5,15.5 Z"/></g>
<g><path style="opacity:0.824" fill="#8400ff" d="M 146.5,16.5 C 146.5,26.5 146.5,36.5 146.5,46.5C 143.545,45.8413 140.545,45.5079 137.5,45.5C 137.5,37.8333 137.5,30.1667 137.5,22.5C 140.5,20.5 143.5,18.5 146.5,16.5 Z"/></g>
<g><path style="opacity:0.848" fill="#7800ff" d="M 76.5,29.5 C 75.7766,34.1731 74.9432,38.8397 74,43.5C 69.9341,44.4637 65.7675,44.797 61.5,44.5C 61.5,43.1667 61.5,41.8333 61.5,40.5C 66.6776,37.0776 71.6776,33.411 76.5,29.5 Z"/></g>
<g><path style="opacity:0.93" fill="#7e00ff" d="M 94.5,33.5 C 94.5,36.8333 94.5,40.1667 94.5,43.5C 91.8333,43.5 89.1667,43.5 86.5,43.5C 86.5,41.8333 86.5,40.1667 86.5,38.5C 89.1492,36.86 91.8159,35.1933 94.5,33.5 Z"/></g>
<g><path style="opacity:0.81" fill="#7100ff" d="M 37.5,35.5 C 37.5,36.5 37.5,37.5 37.5,38.5C 41.81,37.9198 46.1434,37.5865 50.5,37.5C 50.5,40.1667 50.5,42.8333 50.5,45.5C 43.1464,45.4792 35.8131,45.8125 28.5,46.5C 28.5,44.8333 28.5,43.1667 28.5,41.5C 31.9873,40.2546 34.9873,38.2546 37.5,35.5 Z"/></g>
<g><path style="opacity:0.824" fill="#8400ff" d="M 120.5,36.5 C 124.634,37.4849 128.968,37.8182 133.5,37.5C 133.5,40.1667 133.5,42.8333 133.5,45.5C 126.529,44.7103 119.529,44.3769 112.5,44.5C 112.5,43.5 112.5,42.5 112.5,41.5C 115.167,39.8333 117.833,38.1667 120.5,36.5 Z"/></g>
</svg>
