<?xml version="1.0" encoding="UTF-8"?>
<!DOCTYPE svg PUBLIC "-//W3C//DTD SVG 1.1//EN" "http://www.w3.org/Graphics/SVG/1.1/DTD/svg11.dtd">
<svg xmlns="http://www.w3.org/2000/svg" version="1.1" width="180px" height="50px" style="shape-rendering:geometricPrecision; text-rendering:geometricPrecision; image-rendering:optimizeQuality; fill-rule:evenodd; clip-rule:evenodd" xmlns:xlink="http://www.w3.org/1999/xlink">
<g><path style="opacity:0.831" fill="#e40913" d="M 0.5,10.5 C 7.25691,10.1226 13.9236,10.6226 20.5,12C 27.4076,18.4446 27.0742,24.4446 19.5,30C 21.6201,32.4087 23.6201,34.9087 25.5,37.5C 22.8333,38.8333 20.1667,38.8333 17.5,37.5C 15.9793,34.3586 13.6459,32.3586 10.5,31.5C 9.5,31.6667 8.5,31.8333 7.5,32C 8.42308,34.0408 8.75642,36.2075 8.5,38.5C 5.83333,38.5 3.16667,38.5 0.5,38.5C 0.5,29.1667 0.5,19.8333 0.5,10.5 Z M 7.5,17.5 C 10.7956,15.9732 13.9623,16.3065 17,18.5C 17.6667,20.1667 17.6667,21.8333 17,23.5C 13.9269,24.6168 10.7603,24.7835 7.5,24C 8.8112,21.7265 8.8112,19.5598 7.5,17.5 Z"/></g>
<g><path style="opacity:0.841" fill="#e40913" d="M 31.5,10.5 C 38.5,10.5 45.5,10.5 52.5,10.5C 52.5,12.5 52.5,14.5 52.5,16.5C 47.8333,16.5 43.1667,16.5 38.5,16.5C 38.5,18.1667 38.5,19.8333 38.5,21.5C 42.8333,21.5 47.1667,21.5 51.5,21.5C 51.5,23.5 51.5,25.5 51.5,27.5C 47.1667,27.5 42.8333,27.5 38.5,27.5C 38.5,29.1667 38.5,30.8333 38.5,32.5C 43.5,32.5 48.5,32.5 53.5,32.5C 53.5,34.5 53.5,36.5 53.5,38.5C 46.1667,38.5 38.8333,38.5 31.5,38.5C 31.5,29.1667 31.5,19.8333 31.5,10.5 Z"/></g>
<g><path style="opacity:0.845" fill="#e40913" d="M 55.5,10.5 C 58.1667,10.5 60.8333,10.5 63.5,10.5C 65.3164,16.7817 67.8164,22.7817 71,28.5C 73.5,22.8333 76,17.1667 78.5,11.5C 80.7427,10.5258 83.076,10.1924 85.5,10.5C 82.1289,19.5816 78.4623,28.5816 74.5,37.5C 71.8333,38.8333 69.1667,38.8333 66.5,37.5C 62.5441,28.5923 58.8774,19.5923 55.5,10.5 Z"/></g>
<g><path style="opacity:0.78" fill="#fefffe" d="M 90.5,10.5 C 97.1667,10.5 103.833,10.5 110.5,10.5C 110.5,11.8333 110.5,13.1667 110.5,14.5C 105.5,14.5 100.5,14.5 95.5,14.5C 95.5,17.5 95.5,20.5 95.5,23.5C 100.167,23.5 104.833,23.5 109.5,23.5C 109.5,24.8333 109.5,26.1667 109.5,27.5C 104.833,27.5 100.167,27.5 95.5,27.5C 95.5,31.1667 95.5,34.8333 95.5,38.5C 93.8333,38.5 92.1667,38.5 90.5,38.5C 90.5,29.1667 90.5,19.8333 90.5,10.5 Z"/></g>
<g><path style="opacity:0.763" fill="#fefffe" d="M 116.5,10.5 C 118.167,10.5 119.833,10.5 121.5,10.5C 121.5,18.5 121.5,26.5 121.5,34.5C 126.5,34.5 131.5,34.5 136.5,34.5C 136.5,35.8333 136.5,37.1667 136.5,38.5C 129.833,38.5 123.167,38.5 116.5,38.5C 116.5,29.1667 116.5,19.8333 116.5,10.5 Z"/></g>
<g><path style="opacity:0.761" fill="#fefffe" d="M 141.5,10.5 C 143.167,10.5 144.833,10.5 146.5,10.5C 146.5,19.8333 146.5,29.1667 146.5,38.5C 144.833,38.5 143.167,38.5 141.5,38.5C 141.5,29.1667 141.5,19.8333 141.5,10.5 Z"/></g>
<g><path style="opacity:0.78" fill="#fefffe" d="M 153.5,10.5 C 155.199,10.3398 156.866,10.5065 158.5,11C 160.955,14.0777 163.289,17.2444 165.5,20.5C 167.711,17.2444 170.045,14.0777 172.5,11C 174.259,10.2025 175.926,10.3691 177.5,11.5C 174.11,15.5578 171.11,19.8911 168.5,24.5C 171.833,28.8333 175.167,33.1667 178.5,37.5C 176.5,38.8333 174.5,38.8333 172.5,37.5C 170.397,34.2802 168.064,31.2802 165.5,28.5C 162.815,31.1897 160.482,34.1897 158.5,37.5C 156.5,38.8333 154.5,38.8333 152.5,37.5C 156.026,33.1409 159.359,28.6409 162.5,24C 159.252,19.6004 156.252,15.1004 153.5,10.5 Z"/></g>
</svg>
