<?xml version="1.0" encoding="UTF-8"?>
<svg version="1.1" xmlns="http://www.w3.org/2000/svg" width="180" height="50">
<path d="M0 0 C17 0 17 0 21 2 C23.42930667 5.64396001 23.29874985 7.53912081 23.3125 11.875 C23.32925781 13.08929688 23.34601562 14.30359375 23.36328125 15.5546875 C22.98024116 19.18739025 22.11277302 21.06776093 20 24 C20.4844458 24.39872314 20.9688916 24.79744629 21.46801758 25.20825195 C23.40604645 27.4748964 23.4177165 28.71629823 23.51171875 31.66796875 C23.56489258 33.00698242 23.56489258 33.00698242 23.61914062 34.37304688 C23.64169922 35.30181641 23.66425781 36.23058594 23.6875 37.1875 C23.73874023 38.59805664 23.73874023 38.59805664 23.79101562 40.03710938 C23.87347151 42.3576536 23.93841303 44.67880817 24 47 C21.03 47 18.06 47 15 47 C14.67 41.06 14.34 35.12 14 29 C12.02 29 10.04 29 8 29 C8 35.27 8 41.54 8 48 C5.36 48.33 2.72 48.66 0 49 C0 32.83 0 16.66 0 0 Z M8 8 C8 12.29 8 16.58 8 21 C9.98 20.67 11.96 20.34 14 20 C15.58791315 16.82417369 15.41019741 13.45838847 15 10 C13.7893443 7.94995161 13.7893443 7.94995161 12 7 C9.9254644 6.8509288 9.9254644 6.8509288 8 8 Z " fill="#E50914" transform="translate(0,1)"/>
<path d="M0 0 C3.3 0.33 6.6 0.66 10 1 C10.27714844 1.84304688 10.55429688 2.68609375 10.83984375 3.5546875 C11.20207031 4.65039062 11.56429687 5.74609375 11.9375 6.875 C12.29714844 7.96554688 12.65679687 9.05609375 13.02734375 10.1796875 C13.89914074 12.90758682 13.89914074 12.90758682 15 15 C15.27714844 14.07316406 15.55429688 13.14632813 15.83984375 12.19140625 C16.20207031 10.99386719 16.56429687 9.79632813 16.9375 8.5625 C17.29714844 7.36753906 17.65679687 6.17257812 18.02734375 4.94140625 C19 2 19 2 20 1 C22.67058851 0.85884839 25.32432238 0.95752893 28 1 C26.54429111 6.70152649 24.9784578 12.09951571 22.625 17.5 C20.30313198 23.74777463 21.71250343 27.94437271 24 34 C24.73615878 36.14344465 25.46534875 38.28929556 26.1875 40.4375 C26.53167969 41.40558594 26.87585938 42.37367187 27.23046875 43.37109375 C28 46 28 46 28 50 C25.03 49.67 22.06 49.34 19 49 C16.525 41.08 16.525 41.08 14 33 C12.51651502 37.55660988 12.51651502 37.55660988 11.06933594 42.12475586 C9.49831093 46.73095397 9.49831093 46.73095397 7.140625 48.00390625 C4.64389691 47.99935018 2.41884447 47.60471112 0 47 C1.78124178 40.77914801 3.79734438 34.79610926 6.328125 28.8359375 C7.9389018 22.03696102 5.46072677 15.86574186 2.9375 9.625 C0 2.2173913 0 2.2173913 0 0 Z " fill="#E50914" transform="translate(152,0)"/>
<path d="M0 0 C2.97 0 5.94 0 9 0 C10.65 9.57 12.3 19.14 14 29 C15.65 19.43 17.3 9.86 19 0 C21.64 0 24.28 0 27 0 C26.31862582 8.50866009 24.91375679 16.83120382 23.41601562 25.22583008 C22.99550955 27.58772187 22.58338045 29.95097839 22.171875 32.31445312 C21.90674541 33.81519177 21.64113836 35.31584617 21.375 36.81640625 C21.25205566 37.52358292 21.12911133 38.23075958 21.00244141 38.95936584 C20.11491811 43.88508189 20.11491811 43.88508189 19 45 C16.98035801 45.07244053 14.95832876 45.08377188 12.9375 45.0625 C11.28041016 45.04896484 11.28041016 45.04896484 9.58984375 45.03515625 C8.73519531 45.02355469 7.88054688 45.01195312 7 45 C6.1577244 40.36037233 5.32182677 35.71965382 4.49145508 31.07788086 C4.20896456 29.50368357 3.92482666 27.92978088 3.63891602 26.35620117 C2.04477786 17.57587805 0.62601581 8.91478204 0 0 Z " fill="#E50914" transform="translate(55,0)"/>
<path d="M0 0 C7.26 0 14.52 0 22 0 C22 2.64 22 5.28 22 8 C17.71 8 13.42 8 9 8 C9 11.63 9 15.26 9 19 C12.3 19 15.6 19 19 19 C19 21.31 19 23.62 19 26 C15.7 26 12.4 26 9 26 C9 30.29 9 34.58 9 39 C11.475 38.505 11.475 38.505 14 38 C15.43628457 37.93733488 16.8750555 37.91313653 18.3125 37.9375 C20.1378125 37.9684375 20.1378125 37.9684375 22 38 C22 40.64 22 43.28 22 46 C11.11 46.495 11.11 46.495 0 47 C0 31.49 0 15.98 0 0 Z " fill="#E50914" transform="translate(29,0)"/>
<path d="M0 0 C6.93 0 13.86 0 21 0 C21 2.31 21 4.62 21 7 C16.71 7 12.42 7 8 7 C8 10.96 8 14.92 8 19 C11.3 19 14.6 19 18 19 C18 21.64 18 24.28 18 27 C14.7 26.67 11.4 26.34 8 26 C8 31.94 8 37.88 8 44 C5.36 44 2.72 44 0 44 C0 29.48 0 14.96 0 0 Z " fill="#E50914" transform="translate(87,0)"/>
<path d="M0 0 C2.64 0 5.28 0 8 0 C8 12.54 8 25.08 8 38 C12.29 38 16.58 38 21 38 C21 40.64 21 43.28 21 46 C14.07 45.67 7.14 45.34 0 45 C0 30.15 0 15.3 0 0 Z " fill="#E50914" transform="translate(113,0)"/>
<path d="M0 0 C2.97 0 5.94 0 9 0 C9 15.51 9 31.02 9 47 C6.03 46.67 3.06 46.34 0 46 C0 30.82 0 15.64 0 0 Z " fill="#E50914" transform="translate(138,0)"/>
</svg>
